<?xml version="1.0" encoding="utf-8"?>
<!-- Generator: Adobe Illustrator 18.0.0, SVG Export Plug-In . SVG Version: 6.00 Build 0)  -->
<!DOCTYPE svg PUBLIC "-//W3C//DTD SVG 1.1//EN" "http://www.w3.org/Graphics/SVG/1.1/DTD/svg11.dtd">
<svg version="1.1" id="Layer_1" xmlns="http://www.w3.org/2000/svg" xmlns:xlink="http://www.w3.org/1999/xlink" x="0px" y="0px"
	 viewBox="-238.2 0 1030.2 612" enable-background="new -238.2 0 1030.2 612" xml:space="preserve">
<g>
	<path fill="#FFF" d="M-117.4,487.2c8.3-39.1,16.6-78,24.7-117.1c11.1-54.9,21.6-109.7,32.4-164.6c1.5-7.7,3.1-12.9,12.9-12.9
		c42.5,0.6,85.4-1.2,127.9,0.6c65,2.8,90.9,33.3,91.2,102c12-59.5,23.7-119.3,36.1-179.7c23.1,0,46.2,0,70.9,0
		c-4.6,25.3-9.2,50.2-14.2,77.4c19.4,0,37.9-1.2,55.8,0.3c18.8,1.8,37.9,4.3,55.2,10.5c23.4,8.6,34.5,27.7,31.1,52.4
		c-7.4,51.2-16.6,102.3-25.6,153.2c-0.6,3.1-4.9,7.4-7.4,7.7c-22.5,0.6-45,0.3-69,0.3c8.9-47.2,17.3-92.5,25.9-137.8
		c4.6-24.3,0.3-30.2-24-30.2c-16,0-31.7,0-47.8,0c-1.5,0-3.1,0.3-6.5,0.9c-7.4,36.1-14.5,72.4-21.9,109.1c-3.1,16-6.2,32.4-9.9,48.1
		c-0.9,3.7-4.9,9.2-7.4,9.6c-21.3,0.9-42.8,0.3-65.6,0.3c5.5-28.7,10.5-55.2,15.7-81.7c-0.6-0.3-1.5-0.6-2.2-0.9
		c-2.5,4.3-4.6,8.3-7.1,12.6c-24.7,45.3-62.3,69.6-114.3,70.6c-23.1,0.3-46.2,0-70.6,0c-5.2,26.2-10.2,51.8-15.7,78.6
		c-24,0-47.5,0-70.9,0C-117.4,493.4-117.4,490.3-117.4,487.2z M2.5,249.9C-3.7,287.5-9.9,323.6-16,360.9c13.3,0,24.3,0,35.4,0
		c46.5,0,69.6-21,75.2-67.5c3.1-26.2-8.9-41.6-35.1-43.5C41.3,249,22.8,249.9,2.5,249.9z"/>
	<path fill="#FFF" d="M671.5,302.3c-3.1,9.9-5.5,19.7-8.9,29.3c-19.4,53-66.3,86-122.3,86.3c-19.1,0-37.9,0.3-57,0
		c-9.9-0.3-14.5,2.2-16,12.9c-3.1,21.6-8,43.1-12.3,65c-23.7,0-46.5,0-70.9,0c5.9-30.5,11.4-60.1,17.3-89.4
		c12.9-66.3,26.5-132.5,39.1-199.1c2.2-11.7,7.1-14.8,18.2-14.5c38.5,0.6,77,0,115.3,0.3c9.6,0,19.4,0.9,29,2.5
		c36.4,6.5,59.5,27.7,68.7,63.5C671.5,273.6,671.5,287.8,671.5,302.3z M503.2,250.5c-5.9,34.8-11.4,68.1-16.6,101.4
		c-0.3,2.5,0,4.9,0,9.2c10.2,0,20.3,0,30.5,0c50.8,0,72.1-18.8,78.3-68.4c3.1-24.3-7.1-39.4-31.4-41.6
		C544.5,249,524.5,250.5,503.2,250.5z"/>
</g>
</svg>
